<?xml version="1.0" encoding="utf-8"?>
<!-- Generator: Adobe Illustrator 19.2.1, SVG Export Plug-In . SVG Version: 6.00 Build 0)  -->
<svg version="1.1" id="Layer_1" xmlns="http://www.w3.org/2000/svg" xmlns:xlink="http://www.w3.org/1999/xlink" x="0px" y="0px"
	 viewBox="0 0 24 21" style="enable-background:new 0 0 24 21;" xml:space="preserve">
<style type="text/css">
	.st0{fill:#ED9121;}
</style>
<g>
	<g>
		<path class="st0" d="M23.2,16H0.8C0.3,16,0,16.4,0,16.8v3.4C0,20.6,0.3,21,0.8,21h22.5c0.4,0,0.8-0.3,0.8-0.8v-3.4
			C24,16.4,23.7,16,23.2,16z M23.2,8H0.8C0.3,8,0,8.4,0,8.8v3.4C0,12.6,0.3,13,0.8,13h22.5c0.4,0,0.8-0.3,0.8-0.8V8.8
			C24,8.4,23.7,8,23.2,8z M23.2,0H0.8C0.3,0,0,0.4,0,0.8v3.4C0,4.6,0.3,5,0.8,5h22.5C23.7,5,24,4.6,24,4.2V0.8C24,0.4,23.7,0,23.2,0
			z"/>
	</g>
</g>
</svg>
