<svg id="Layer_1" data-name="Layer 1" xmlns="http://www.w3.org/2000/svg" viewBox="0 0 310.71 55.12"><defs><style>.cls-1{fill:#de6e26;}.cls-2{fill:#fff;}</style></defs><title>rgc-logo</title><path class="cls-1" d="M182.95,12.17l0.12-4.06,3.44,0.78L183.13,0l0.78,6.82-3-.55Zm-5,3.23-1.79-3.74,2.68-.48-2.27-3.34,0.4,2.54-2.71.06Zm13.49-1.1,1.32-6-2,4-1.45-1.4-1,3.92,1.53-2.13Zm-19,40.59,22.45,0.23,0.25-4.23-22.95-1.6Zm11.91-31.16a7.68,7.68,0,0,0-5.17,13.21h0a7.32,7.32,0,0,0,1.07.86h0.2l0.23-.87,0.94,0.25-0.23.89a3.73,3.73,0,0,1,.49.24l1.24-.74a5.24,5.24,0,0,1-.48-1.63l-1.49,0,0-1.12,1.49,0a5.34,5.34,0,0,1,.41-1.64l-1.31-.72,0.54-1,1.31,0.72A5.33,5.33,0,0,1,184.76,31L184,29.69l1-.58,0.78,1.28a5.54,5.54,0,0,1,1.63-.47l0-1.49,1.12,0,0,1.5a5.42,5.42,0,0,1,1.64.4L190.82,29l1,0.55-0.72,1.3a5.32,5.32,0,0,1,1.1,1c0-.2,0-0.41,0-0.62A7.68,7.68,0,0,0,184.36,23.73ZM180,38.9a2.68,2.68,0,1,0,2.74,2.62A2.68,2.68,0,0,0,180,38.9Zm8-6.34a2.68,2.68,0,1,0,2.74,2.62A2.68,2.68,0,0,0,188,32.55Zm8.2,0.49,1-16.22-26.37.63,1.33,31.13,23.13-.22,0.32-5.23,5.43-.11Zm-0.34-1.19-1.6,0a10,10,0,0,1-.45,2.49l-0.08.21,1.08,0,0,1.12-1.49,0a5.3,5.3,0,0,1-.41,1.65l1.31,0.72-0.54,1-1.31-.72a5.53,5.53,0,0,1-1.17,1.22L192,40.85l-1,.58-0.78-1.28a5.34,5.34,0,0,1-1.63.47l0,1.5-1.12,0,0-1.42a9.54,9.54,0,0,1-2.16.46h0l-0.21.38-0.66-.36H184l-0.28,0a4,4,0,0,1,0,1l0.88,0.24-0.25.94-0.88-.23a4,4,0,0,1-.52.9l0.65,0.64-0.69.69-0.64-.65a3.61,3.61,0,0,1-.9.52l0.24,0.88-0.94.26-0.24-.88a4.22,4.22,0,0,1-1,0l-0.23.88-0.94-.25,0.23-.88a4.21,4.21,0,0,1-.89-0.52l-0.64.65-0.69-.69,0.64-.65a3.64,3.64,0,0,1-.52-0.89l-0.87.24-0.26-.94,0.88-.24a3.91,3.91,0,0,1,0-1l-0.87-.23,0.25-.94,0.88,0.23a3.64,3.64,0,0,1,.27-0.54l-0.51-.49,0.3-.31-0.2-.2,0.69-.69,0.19,0.19,0.13-.14a9.87,9.87,0,0,1-1.45-2.08l-1.47.63-0.54-1.25,1.47-.63a9.5,9.5,0,0,1-.52-2.38l-1.6,0,0-1.36,1.6,0a9.82,9.82,0,0,1,.44-2.5l-1.48-.58,0.5-1.26,1.48,0.59a9.83,9.83,0,0,1,1.32-2L175.85,24l0.93-1,1.15,1.1A10,10,0,0,1,180,22.71l-0.64-1.47,1.25-.53,0.63,1.46a9.9,9.9,0,0,1,2.38-.51l0-1.6L185,20l0,1.61a9.83,9.83,0,0,1,2.5.45l0.59-1.48,1.26,0.5-0.59,1.49a9.6,9.6,0,0,1,2,1.31l1.11-1.15,1,0.94-1.11,1.16a9.29,9.29,0,0,1,1.45,2.07l1.47-.63,0.54,1.25-1.47.63a9.93,9.93,0,0,1,.51,2.37l1.6,0Zm-12.3,6.74,0,0-0.37.37a8.21,8.21,0,0,0,.94.09,4.79,4.79,0,0,1-.49-0.56Z"/><path class="cls-1" d="M215.89,24.62c-2.31,0-3.91.73-4.8,2.11a5.07,5.07,0,0,0-.75,2.31,19.24,19.24,0,0,0-.13,2.45v8.11c0,3.27,1.17,5.17,3.48,5.7a8.14,8.14,0,0,0,2.15.24,7.49,7.49,0,0,0,2.43-.37,3.72,3.72,0,0,0,1.63-1.05,5.39,5.39,0,0,0,1.27-3.49l0-1.27v-0.7h-2.8v0.69l-0.12,1.31c-0.19,1.72-1,2.59-2.52,2.6a2.5,2.5,0,0,1-2.39-1.29,7.61,7.61,0,0,1-.35-2.82v-8l0-1.67a2.9,2.9,0,0,1,.36-1.24A2.61,2.61,0,0,1,216,26.9q2.26,0,2.36,2.43l0,1V30.8h2.8V30c0-.6,0-1.13-0.07-1.6Q220.76,24.66,215.89,24.62Z"/><path class="cls-1" d="M235.28,43.16c-0.05-.42-0.1-0.91-0.13-1.5L235,39.26a14.15,14.15,0,0,0-.19-1.89,2.45,2.45,0,0,0-1.12-1.77,5.34,5.34,0,0,0-2-.53,4.58,4.58,0,0,0,3.08-1.5,6,6,0,0,0,.82-3.42q0-4.27-3.15-4.88a8.94,8.94,0,0,0-1.78-.19h-6.34V45.45h2.81V36.2h1.93a5.62,5.62,0,0,1,1.47.17c1,0.29,1.57,1.16,1.69,2.63l0.1,1.91,0.1,1.83a12.67,12.67,0,0,0,.19,1.62l0.25,1.08h3.56V43.16h-1.16Zm-4.6-9.38a7.89,7.89,0,0,1-1.54.13h-2V27.38h2.16a4.77,4.77,0,0,1,2.56.5,2.72,2.72,0,0,1,.94,2.37,5.73,5.73,0,0,1-.32,2.26A2.32,2.32,0,0,1,230.69,33.78Z"/><polygon class="cls-1" points="242.16 36.11 248.14 36.11 248.14 33.82 242.16 33.82 242.16 27.36 246.31 27.36 246.31 28.31 248.52 28.31 248.52 25.07 248.52 25.07 248.52 25.06 239.36 25.07 239.36 45.42 248.47 45.42 248.47 43.14 242.16 43.14 242.16 36.11"/><path class="cls-1" d="M263.66,43.17L259.5,25.1h-3.68l-4.17,18.07h-1.36v2.29h3.55l1-4.65h5.44l1,4.65h3.57V43.17h-1.15Zm-3.85-4.64h-4.44l2.3-10.84h0l2.15,10.84h0Z"/><polygon class="cls-1" points="264.66 25.08 264.66 28.32 266.88 28.32 266.88 27.37 269.37 27.37 269.37 45.44 272.18 45.44 272.18 27.37 274.66 27.37 274.66 28.33 276.88 28.32 276.89 25.08 264.66 25.08"/><rect class="cls-1" x="279.92" y="25.06" width="2.81" height="20.36"/><polygon class="cls-1" points="295.56 25.12 292.39 42.34 292.39 42.34 289.13 25.12 285.57 25.12 285.57 27.4 286.69 27.4 290.52 45.48 293.95 45.48 297.79 27.4 299.12 27.4 299.12 25.12 295.56 25.12"/><polygon class="cls-1" points="310.66 42.17 308.44 42.17 308.44 43.13 304.35 43.13 304.35 36.1 310.32 36.1 310.32 33.81 304.35 33.81 304.35 27.35 310.71 27.35 310.71 25.06 301.55 25.06 301.55 45.41 310.66 45.41 310.66 45.41 310.66 42.17"/><path class="cls-2" d="M39.32,35.49a17.77,17.77,0,0,0-2.26-1.36c-0.93-.48-1.76-1-2.5-1.43a3.32,3.32,0,0,1-1.78-2.9A2.53,2.53,0,0,1,35.65,27a2.26,2.26,0,0,1,2.5,2.32l0.06,1.06v0.49H41V30.46q0-3.25-1-4.37a5.69,5.69,0,0,0-4.29-1.39,6.88,6.88,0,0,0-3.82,1A4.72,4.72,0,0,0,30,29.89a5.17,5.17,0,0,0,1.7,4.17,10.9,10.9,0,0,0,2,1.38l2,1.15a13.14,13.14,0,0,1,1.75,1.18,3,3,0,0,1,1.05,2.44c0,1.54-.58,2.51-1.64,2.92a3.87,3.87,0,0,1-1.58.29,2.44,2.44,0,0,1-2.74-2.08,6.36,6.36,0,0,1-.17-1.62V38.57H29.6v0.81l0,1.65a4.7,4.7,0,0,0,1.75,3.63,6.16,6.16,0,0,0,3.94,1q6,0,6-5.61A5.4,5.4,0,0,0,39.32,35.49Zm54.23,0.58h6v-2.3h-6V27.28h6.39V25h-9.2V45.43h9.4v-2.3H93.55V36.07ZM112,25.28a8,8,0,0,0-6,0,4,4,0,0,0-2.48,2.62,13.77,13.77,0,0,0-.38,3.68v6.84q0,4,.94,5.39,1.26,1.9,5,1.9,5.12,0,5.6-4.09a26.93,26.93,0,0,0,.16-3.2V31.58a14.16,14.16,0,0,0-.39-3.68A4.1,4.1,0,0,0,112,25.28Zm0,13.13c0,0.89,0,1.66-.09,2.29A2.64,2.64,0,0,1,110.53,43a3,3,0,0,1-1.48.37,3.21,3.21,0,0,1-1.64-.44,2.33,2.33,0,0,1-1.09-1.21,12.29,12.29,0,0,1-.31-3.36V31.57a16.86,16.86,0,0,1,.07-1.88,2.61,2.61,0,0,1,1.54-2.38,3.43,3.43,0,0,1,1.43-.3,2.58,2.58,0,0,1,2.62,1.44,8,8,0,0,1,.41,3.12v6.84Zm-29.7-4v2.31h2v2.57L84.3,40.63a2.77,2.77,0,0,1-2.9,2.61,2.83,2.83,0,0,1-2.61-1.31,7.67,7.67,0,0,1-.35-2.83V31l0-1.68a2.83,2.83,0,0,1,.36-1.24c0.4-.85,1.48-1.28,2.82-1.29a2.46,2.46,0,0,1,2.74,2.43l0,1v0.27h2.81V29.94a8.58,8.58,0,0,0-.07-1.6c-0.53-2.7-2.36-3.78-5.61-3.81-2.32,0-4.13.73-5,2.12A5.05,5.05,0,0,0,75.76,29a17.28,17.28,0,0,0-.13,2.46v8.15q0,4.92,3.5,5.72a9.83,9.83,0,0,0,2.36.25,10.08,10.08,0,0,0,2.81-.38,3.77,3.77,0,0,0,1.64-1.06,5.42,5.42,0,0,0,1.28-3.51l0-1.27V34.43H82.38Zm47.08,7.2-0.12-2.41a15.76,15.76,0,0,0-.19-1.9A2.45,2.45,0,0,0,128,35.55a5.31,5.31,0,0,0-2-.54,4.61,4.61,0,0,0,3.09-1.51,6,6,0,0,0,.83-3.44q0-4.29-3.16-4.9A9,9,0,0,0,125,25h-6.37V45.43h2.81V36.14h1.94a5.7,5.7,0,0,1,1.48.17q1.51,0.44,1.7,2.64l0.1,1.92,0.11,1.84a8.78,8.78,0,0,0,.16,1.41l0.28,1.31h2.92a13.57,13.57,0,0,1-.4-1.64A15.05,15.05,0,0,1,129.46,41.63ZM125,33.71a8.34,8.34,0,0,1-1.55.13h-2V27.28h2.17a4.77,4.77,0,0,1,2.56.51,2.72,2.72,0,0,1,.94,2.37,5.78,5.78,0,0,1-.32,2.27A2.33,2.33,0,0,1,125,33.71Zm15,1V37h2v2.57l-0.12,1.32A2.77,2.77,0,0,1,139,43.49a2.81,2.81,0,0,1-2.61-1.31,7.45,7.45,0,0,1-.35-2.82V31.3l0-1.68a2.69,2.69,0,0,1,3.18-2.54,2.46,2.46,0,0,1,2.73,2.44l0,1v0.27h2.82V30.2a8.59,8.59,0,0,0-.07-1.61c-0.53-2.69-2.35-3.78-5.61-3.81-2.32,0-4.13.74-5,2.12a5.1,5.1,0,0,0-.75,2.32,17.8,17.8,0,0,0-.13,2.46v8.14q0,4.92,3.49,5.72a9.79,9.79,0,0,0,2.36.25,10.11,10.11,0,0,0,2.81-.37,3.79,3.79,0,0,0,1.64-1.06,5.4,5.4,0,0,0,1.28-3.5l0-1.27V34.69h-4.86Zm-78.09-.74h0l-3-9H55.66l4.65,11.94v8.51h2.81V36.92L67.77,25H65Zm89.27,2.13h6v-2.3h-6V27.28h6.39V25h-9.2V45.43h9.4v-2.3h-6.58V36.07ZM42.5,27.28h4.73V45.43H50V27.28h4.73V25H42.5v2.3Z"/><path class="cls-2" d="M11.1,43.79a16.09,16.09,0,0,1-.23-2.16l-0.12-2.41a13.7,13.7,0,0,0-.19-1.9,2.45,2.45,0,0,0-1.13-1.77,5.27,5.27,0,0,0-2-.54,4.61,4.61,0,0,0,3.09-1.51,6,6,0,0,0,.83-3.44q0-4.29-3.16-4.9A9,9,0,0,0,6.37,25H0V45.43H2.82V36.14H4.76a5.68,5.68,0,0,1,1.48.17Q7.75,36.75,7.94,39L8,40.87l0.11,1.84a9.31,9.31,0,0,0,.16,1.41l0.28,1.31h2.93A15,15,0,0,1,11.1,43.79ZM6.38,33.71a8.32,8.32,0,0,1-1.55.13h-2V27.28H5a4.78,4.78,0,0,1,2.57.51,2.73,2.73,0,0,1,.94,2.37,5.78,5.78,0,0,1-.32,2.27A2.33,2.33,0,0,1,6.38,33.71Z"/><path class="cls-2" d="M23.65,38.61c0,0.68,0,1.34-.1,2-0.17,1.86-1.15,2.8-2.93,2.8s-2.72-1-2.82-3l0-1.81V25H15V38.84c0,1.21,0,2.08.07,2.62a4.35,4.35,0,0,0,.91,2.42q1.45,1.81,4.76,1.83a5.86,5.86,0,0,0,4.73-1.86,4.2,4.2,0,0,0,.93-2.39q0.08-.93.1-2.62V25H23.65V38.61Z"/></svg>